<?xml version="1.0" standalone="no"?>
<!DOCTYPE svg PUBLIC "-//W3C//DTD SVG 1.1//EN" "http://www.w3.org/Graphics/SVG/1.1/DTD/svg11.dtd" >
<svg xmlns="http://www.w3.org/2000/svg">
<metadata>
Created by FontForge 20120731 at Tue Dec 20 19:08:06 2016
 By admin
</metadata>
<defs>
<font id="iconfont" horiz-adv-x="1024" >
  <font-face 
    font-family="iconfont"
    font-weight="500"
    font-stretch="normal"
    units-per-em="1024"
    panose-1="2 0 6 3 0 0 0 0 0 0"
    ascent="896"
    descent="-128"
    x-height="792"
    bbox="-0.285714 -64 1025.73 853"
    underline-thickness="0"
    underline-position="0"
    unicode-range="U+0078-E687"
  />
<missing-glyph 
 />
    <glyph glyph-name=".notdef" 
 />
    <glyph glyph-name=".notdef" 
 />
    <glyph glyph-name=".null" horiz-adv-x="0" 
 />
    <glyph glyph-name="nonmarkingreturn" horiz-adv-x="341" 
 />
    <glyph glyph-name="x" unicode="x" horiz-adv-x="1001" 
d="M281 543q-27 -1 -53 -1h-83q-18 0 -36.5 -6t-32.5 -18.5t-23 -32t-9 -45.5v-76h912v41q0 16 -0.5 30t-0.5 18q0 13 -5 29t-17 29.5t-31.5 22.5t-49.5 9h-133v-97h-438v97zM955 310v-52q0 -23 0.5 -52t0.5 -58t-10.5 -47.5t-26 -30t-33 -16t-31.5 -4.5q-14 -1 -29.5 -0.5
t-29.5 0.5h-32l-45 128h-439l-44 -128h-29h-34q-20 0 -45 1q-25 0 -41 9.5t-25.5 23t-13.5 29.5t-4 30v167h911zM163 247q-12 0 -21 -8.5t-9 -21.5t9 -21.5t21 -8.5q13 0 22 8.5t9 21.5t-9 21.5t-22 8.5zM316 123q-8 -26 -14 -48q-5 -19 -10.5 -37t-7.5 -25t-3 -15t1 -14.5
t9.5 -10.5t21.5 -4h37h67h81h80h64h36q23 0 34 12t2 38q-5 13 -9.5 30.5t-9.5 34.5q-5 19 -11 39h-368zM336 498v228q0 11 2.5 23t10 21.5t20.5 15.5t34 6h188q31 0 51.5 -14.5t20.5 -52.5v-227h-327z" />
    <glyph glyph-name="ChristmasCandy" unicode="&#xe665;" 
d="M648 610l60 181l211 -211l-181 -60zM286 248l-181 -60l211 -211l60 181zM678 580l90 151l106 15l-15 -106l-151 -90zM316 218l-151 -90l-15 -106l106 15l90 151zM708 580q80 -83 74 -188.5t-89 -188.5t-188.5 -89t-188.5 74q-80 83 -74 188.5t89 188.5t188.5 89
t188.5 -74zM512 384zM341 384q0 -71 50 -121t121 -50t121 50t50 121t-50 121t-121 50t-121 -50t-50 -121z" />
    <glyph glyph-name="ChristmasGift" unicode="&#xe666;" 
d="M832 64q0 -18 -12.5 -30.5t-30.5 -12.5h-554q-18 0 -30.5 12.5t-12.5 30.5v405h640v-405zM469 427h86v-406h-86v406zM672 555h-252l49 42q1 1 7 11t12 19t17 23.5t21.5 27t25.5 25.5t30 22.5t33 15.5t36 6q33 0 58 -11t37 -27.5t17 -31t5 -26.5q0 -36 -24 -66t-72 -30z
M547 619h125q32 0 32 32q0 6 -3 12t-16 13t-34 7q-44 0 -104 -64zM604 555h-252q-48 0 -72 30t-24 66q0 12 5 26.5t17 31t37 27.5t58 11q18 0 36 -6t33 -15.5t30 -22.5t25.5 -25.5t21.5 -27t17 -23.5t12 -19t7 -11zM373 683q-14 0 -25 -3.5t-16 -7.5t-8 -9t-3.5 -7.5
t-0.5 -4.5q1 -32 32 -32h125q-60 64 -104 64zM512 597zM469 597.5q0 -17.5 12.5 -30t30.5 -12.5t30.5 12.5t12.5 30t-12.5 30t-30.5 12.5t-30.5 -12.5t-12.5 -30zM875 427h-726v85q0 18 12.5 30.5t30.5 12.5h640q18 0 30.5 -12.5t12.5 -30.5v-85zM512 235zM363 234.5
q0 -61.5 43.5 -105.5t105.5 -44t105.5 44t43.5 105.5t-43.5 105.5t-105.5 44t-105.5 -44t-43.5 -105.5zM469 555h86v-128h-86v128z" />
    <glyph glyph-name="ChristmasCandle" unicode="&#xe667;" 
d="M491 577v-64v-1q0 -8 6 -14.5t15 -6.5t15 6.5t6 14.5v1v64q-11 -2 -21 -2t-21 2zM597 659q0 21 -21 64.5t-43 75.5l-21 33q-10 -14 -24 -36t-37.5 -69t-23.5 -68v0q0 -27 18.5 -51.5t45.5 -31.5v40q0 9 6 15.5t15 6.5t15 -6.5t6 -15.5v-40q27 7 45.5 31.5t18.5 51.5v0z
M469 617q0 18 12.5 30.5t30.5 12.5t30.5 -12.5t12.5 -30.5v0q0 -18 -12.5 -30.5t-30.5 -12.5t-30.5 12.5t-12.5 30.5v0zM512 639q-9 -1 -15 -7t-6 -15v-39q11 -3 21 -3t21 3v39v0q0 9 -6 15.5t-15 6.5v0zM597 128v0q0 -18 -12.5 -30.5t-29.5 -12.5h-86q-17 0 -29.5 12.5
t-12.5 30.5v0l-1 364q0 18 12.5 30.5t30.5 12.5h85q18 0 30.5 -12.5t12.5 -30.5v-364zM536 70l-429 79q5 -2 13.5 -6t29 -18.5t35 -30.5t24.5 -41.5t4 -52.5q7 3 18 8t39.5 11.5t49.5 2t42.5 -26.5t32 -39.5t10.5 -19.5q3 6 7 16t18 35t28.5 43t35.5 31t42 9zM619 -64
q1 3 4 8t12 19t18.5 24.5t23 21t27.5 12.5q21 5 48 -0.5t43 -12.5t16 -8q-16 77 78 135l28 14l-429 -79q21 4 41.5 -8.5t36 -32.5t28 -41.5t19 -36t6.5 -15.5zM536 70l-429 79q5 2 14 4.5t32.5 13t42.5 24t37 36.5t23 50q6 -8 15.5 -20t35 -35t46.5 -28q18 -4 36.5 1
t32.5 14.5t25 20t17 18.5l5 8q1 -2 0 -18t3 -43t9.5 -53t19.5 -47t35 -25zM555 256q2 -3 6 -8t16 -17.5t25 -21.5t32 -14t37 -1q21 5 45.5 26t37.5 39l14 18q15 -77 119 -118l30 -10l-429 -79q21 4 35 25t19.5 47t9.5 53t3 43t0 18v0zM555 85zM512 85v0q0 -17 12.5 -29.5
t30 -12.5t30 12.5t12.5 29.5v0v0q0 18 -12.5 30.5t-30 12.5t-30 -12.5t-12.5 -30.5v0zM469 85zM427 85v0q0 -17 12.5 -29.5t30 -12.5t30 12.5t12.5 29.5v0v0q0 18 -12.5 30.5t-30 12.5t-30 -12.5t-12.5 -30.5v0zM512 149zM469 149.5q0 -17.5 12.5 -30t30.5 -12.5t30.5 12.5
t12.5 30t-12.5 30t-30.5 12.5t-30.5 -12.5t-12.5 -30z" />
    <glyph glyph-name="CandyCane" unicode="&#xe668;" 
d="M789 558q0 95 -68 164q-28 28 -75.5 47.5t-87.5 19.5v0q-87 0 -154 -60v0q-8 -8 -14 -21.5t-6 -24.5q0 -27 19 -45.5t45 -18.5q21 0 38 13h1q0 1 2 2t2 2l1 0.5t2 1.5q26 23 61 23q44 0 75 -31t31 -75t-39 -82l-368 -384q0 -1 -1 -1.5l-1 -0.5l-2 -3v0q-15 -18 -15 -41
q0 -27 18.5 -45.5t45.5 -18.5q26 0 44 18v0h1v1l376 397q69 69 69 163zM635 624l94 89l-3 3.5t-5 5.5q-11 10 -23 20l-98 -91q20 -10 35 -27zM488 149l40 43h-175l-41 -43h176zM535 659q10 2 20 2q12 0 23 -3l24 127q-21 4 -42 4zM558 405l-41 -42h173l30 32q3 2 10 10h-172
zM455 299l-40 -43h174l41 43h-175zM387 43l40 42h-176l-1 -1v0q-15 -18 -15 -41h152zM430 749l43 -125q8 4 13 8h1q0 1 2 2t2 2l1 0.5t2 1.5q7 6 16 12l-42 120q-20 -8 -38 -21zM652 597q9 -20 9 -41l126 33q-3 22 -10 42zM651 512q-9 -20 -29 -39l-3 -4h152q9 21 14 43
h-134z" />
    <glyph glyph-name="ChristmasBall" unicode="&#xe669;" 
d="M755 627l49 139l3 4q20 19 47 19q24 0 44 -19q15 -16 18 -34.5t-2.5 -32.5t-15.5 -24l-4 -3zM840 742l-16 -46l46 16q11 14 -3 27q-7 8 -13 8q-7 0 -14 -5zM821 669q18 -19 18 -45.5t-18 -45.5l-18 -18h-11t-27.5 9t-39.5 28t-28.5 41t-10.5 34v13l14 14q19 19 45.5 19
t45.5 -19zM107 373.5q0 101.5 50 187.5t136 136t187 50t187 -50t136 -136t50 -187.5t-50 -187.5t-136 -136t-187 -50t-187 50t-136 136t-50 187.5zM770 340l-9 171l-135 -109l-149 30l44 -152l-86 -148l160 9l74 -89q26 15 49 34l31 94l68 34q17 35 26 73zM321 338l-118 15
l-82 121q-14 -49 -14 -101q0 -82 33.5 -155t93.5 -125l77 -31l-47 161zM268 681v0l1 -2l-62 -126l139 36l84 -59l26 108l117 78l-80 28l-1 2q-1 0 -5.5 0.5t-6.5 0.5v0q-48 0 -110 -19.5t-102 -46.5zM614 184l66 -79l34 106l96 47l-82 59l-6 108l-84 -68l-100 19l29 -101
l-56 -96zM179 312l-53 78l-17 -61q5 -37 22.5 -85t38.5 -79l75 -31l-27 93l38 76zM317 679l-30 -61l68 18l48 -35l15 63l61 40l-59 21l-3 16q-59 -10 -112 -38z" />
    <glyph glyph-name="ChristmasMitten" unicode="&#xe66a;" 
d="M515 270q25 -26 24 -71t-27 -71h-21q-20 -20 -45.5 -21t-45.5 10t-39 30l-186 218q-11 10 -18 28t-7 33q0 35 25 60.5t61 25.5q15 0 33 -7.5t28 -17.5zM591 853q-106 0 -178 -74.5t-72 -181.5v-297q0 -37 21 -115t43 -78h360q34 23 55 84t27 122.5t6 136t-2.5 103
t-3.5 44.5v0q0 106 -75 181t-181 75zM384 107h405v-150h-405v150zM459 96zM427 96q0 -13 9 -22.5t22.5 -9.5t23 9.5t9.5 22.5t-9.5 22.5t-23 9.5t-22.5 -9.5t-9 -22.5zM395 96zM363 96q0 -13 9 -22.5t22.5 -9.5t23 9.5t9.5 22.5t-9.5 22.5t-23 9.5t-22.5 -9.5t-9 -22.5z
M523 96zM491 96q0 -13 9 -22.5t22.5 -9.5t23 9.5t9.5 22.5t-9.5 22.5t-23 9.5t-22.5 -9.5t-9 -22.5zM587 96zM555 96q0 -13 9 -22.5t22.5 -9.5t23 9.5t9.5 22.5t-9.5 22.5t-23 9.5t-22.5 -9.5t-9 -22.5zM651 96zM619 96q0 -13 9 -22.5t22.5 -9.5t23 9.5t9.5 22.5t-9.5 22.5
t-23 9.5t-22.5 -9.5t-9 -22.5zM459 -32zM427 -32q0 -13 9 -22.5t22.5 -9.5t23 9.5t9.5 22.5t-9.5 22.5t-23 9.5t-22.5 -9.5t-9 -22.5zM523 -32zM491 -32q0 -13 9 -22.5t22.5 -9.5t23 9.5t9.5 22.5t-9.5 22.5t-23 9.5t-22.5 -9.5t-9 -22.5zM587 -32zM555 -32q0 -13 9 -22.5
t22.5 -9.5t23 9.5t9.5 22.5t-9.5 22.5t-23 9.5t-22.5 -9.5t-9 -22.5zM651 -32zM619 -32q0 -13 9 -22.5t22.5 -9.5t23 9.5t9.5 22.5t-9.5 22.5t-23 9.5t-22.5 -9.5t-9 -22.5zM715 96zM683 96q0 -13 9 -22.5t22.5 -9.5t23 9.5t9.5 22.5t-9.5 22.5t-23 9.5t-22.5 -9.5t-9 -22.5
zM715 -32zM683 -32q0 -13 9 -22.5t22.5 -9.5t23 9.5t9.5 22.5t-9.5 22.5t-23 9.5t-22.5 -9.5t-9 -22.5zM779 -32zM747 -32q0 -13 9 -22.5t22.5 -9.5t23 9.5t9.5 22.5t-9.5 22.5t-23 9.5t-22.5 -9.5t-9 -22.5zM779 32zM747 32q0 -13 9 -22.5t22.5 -9.5t23 9.5t9.5 22.5
t-9.5 22.5t-23 9.5t-22.5 -9.5t-9 -22.5zM779 96zM747 96q0 -13 9 -22.5t22.5 -9.5t23 9.5t9.5 22.5t-9.5 22.5t-23 9.5t-22.5 -9.5t-9 -22.5zM395 32zM363 32q0 -13 9 -22.5t22.5 -9.5t23 9.5t9.5 22.5t-9.5 22.5t-23 9.5t-22.5 -9.5t-9 -22.5zM395 -32zM363 -32
q0 -13 9 -22.5t22.5 -9.5t23 9.5t9.5 22.5t-9.5 22.5t-23 9.5t-22.5 -9.5t-9 -22.5z" />
    <glyph glyph-name="ChristmasPenguin" unicode="&#xe66b;" 
d="M277 512q-12 -30 -34 -60.5t-44.5 -53.5t-44 -41t-34.5 -27.5l-13 -9.5q1 -2 2.5 -4.5t10 -10t19.5 -13t30.5 -10.5t43.5 -5h64v235zM747 512q12 -30 34 -60.5t44.5 -53.5t43.5 -41t35 -28l13 -9q-1 -2 -2.5 -4.5t-10 -10t-19.5 -13t-30.5 -10.5t-43.5 -5h-64v235z
M725 597q0 -88 -62.5 -150.5t-150.5 -62.5t-150.5 62.5t-62.5 150.5q0 107 59.5 160.5t153.5 53.5t153.5 -53.5t59.5 -160.5zM512 320zM213 320q0 -124 87.5 -211.5t211.5 -87.5t211.5 87.5t87.5 211.5t-87.5 211.5t-211.5 87.5t-211.5 -87.5t-87.5 -211.5zM213 320
q0 43 13.5 88t29.5 75t29.5 62t13.5 52q0 19 44 31.5t106.5 15t125 0t106.5 -15t44 -31.5q0 -20 13.5 -52t29.5 -62t29.5 -75t13.5 -88q0 -45 -93.5 -71t-205.5 -26t-205.5 26t-93.5 71zM512 320zM299 320q0 -88 62.5 -150.5t150.5 -62.5t150.5 62.5t62.5 150.5t-62.5 150.5
t-150.5 62.5t-150.5 -62.5t-62.5 -150.5zM640 533q21 43 21 86q0 67 -37 80.5t-74.5 -5.5t-37.5 -33q0 14 -37.5 33t-74.5 5.5t-37 -80.5q0 -19 5 -40.5t11 -33.5l5 -12q-5 -10 -21.5 -33t-29.5 -43t-23.5 -57t-10.5 -80h426q0 43 -10.5 80t-23.5 57t-29.5 43t-21.5 33z
M459 587zM427 586.5q0 -13.5 9 -22.5t22.5 -9t23 9t9.5 22.5t-9.5 23t-23 9.5t-22.5 -9.5t-9 -23zM565 587zM533 586.5q0 -13.5 9.5 -22.5t23 -9t22.5 9t9 22.5t-9 23t-22.5 9.5t-23 -9.5t-9.5 -23zM527 548q-6 7 -15 7t-15 -7v0q-8 -6 -19.5 -9t-18.5 -2l-7 1q2 -4 4 -10
t8.5 -21.5t13.5 -27.5t16.5 -21.5t17.5 -9.5q13 0 28 22.5t23 44.5l9 23q-26 -5 -45 10z" />
    <glyph glyph-name="ChristmasStar" unicode="&#xe66c;" 
d="M512 811l149 -278l299 -42l-213 -214l42 -320l-277 150l-277 -150l42 320l-213 214l299 42zM512 363l149 170l-149 278v-448zM960 491l-448 -128l235 -86zM789 -43l-277 406v-256zM277 277l-42 -320l277 406zM64 491l448 -128l-149 170z" />
    <glyph glyph-name="ChristmasStocking" unicode="&#xe66d;" 
d="M597 0v0q-28 0 -63.5 12.5t-57.5 30.5l-171 128q-29 24 -49.5 67.5t-20.5 81.5v299h362v-194l122 -84q29 -24 49.5 -67.5t20.5 -81.5q0 -80 -56 -136t-136 -56v0v0zM256 427q-10 0 -21 -2v-105q0 -38 20.5 -81.5t49.5 -67.5l61 -45q25 21 43 59t18 71v0q0 71 -50 121
t-121 50zM213 768h406v-149h-406v149zM288 757zM256 757.5q0 -13.5 9.5 -23t22.5 -9.5t22.5 9.5t9.5 23t-9.5 22.5t-22.5 9t-22.5 -9t-9.5 -22.5zM224 757zM192 757.5q0 -13.5 9.5 -23t22.5 -9.5t22.5 9.5t9.5 23t-9.5 22.5t-22.5 9t-22.5 -9t-9.5 -22.5zM352 757z
M320 757.5q0 -13.5 9.5 -23t22.5 -9.5t22.5 9.5t9.5 23t-9.5 22.5t-22.5 9t-22.5 -9t-9.5 -22.5zM416 757zM384 757.5q0 -13.5 9.5 -23t22.5 -9.5t22.5 9.5t9.5 23t-9.5 22.5t-22.5 9t-22.5 -9t-9.5 -22.5zM480 757zM448 757.5q0 -13.5 9.5 -23t22.5 -9.5t22.5 9.5t9.5 23
t-9.5 22.5t-22.5 9t-22.5 -9t-9.5 -22.5zM288 629zM256 629.5q0 -13.5 9.5 -23t22.5 -9.5t22.5 9.5t9.5 23t-9.5 22.5t-22.5 9t-22.5 -9t-9.5 -22.5zM352 629zM320 629.5q0 -13.5 9.5 -23t22.5 -9.5t22.5 9.5t9.5 23t-9.5 22.5t-22.5 9t-22.5 -9t-9.5 -22.5zM416 629z
M384 629.5q0 -13.5 9.5 -23t22.5 -9.5t22.5 9.5t9.5 23t-9.5 22.5t-22.5 9t-22.5 -9t-9.5 -22.5zM480 629zM448 629.5q0 -13.5 9.5 -23t22.5 -9.5t22.5 9.5t9.5 23t-9.5 22.5t-22.5 9t-22.5 -9t-9.5 -22.5zM544 757zM512 757.5q0 -13.5 9.5 -23t22.5 -9.5t22.5 9.5t9.5 23
t-9.5 22.5t-22.5 9t-22.5 -9t-9.5 -22.5zM544 629zM512 629.5q0 -13.5 9.5 -23t22.5 -9.5t22.5 9.5t9.5 23t-9.5 22.5t-22.5 9t-22.5 -9t-9.5 -22.5zM608 629zM576 629.5q0 -13.5 9.5 -23t22.5 -9.5t22.5 9.5t9.5 23t-9.5 22.5t-22.5 9t-22.5 -9t-9.5 -22.5zM608 693z
M576 693.5q0 -13.5 9.5 -23t22.5 -9.5t22.5 9.5t9.5 23t-9.5 22.5t-22.5 9t-22.5 -9t-9.5 -22.5zM608 757zM576 757.5q0 -13.5 9.5 -23t22.5 -9.5t22.5 9.5t9.5 23t-9.5 22.5t-22.5 9t-22.5 -9t-9.5 -22.5zM224 693zM192 693.5q0 -13.5 9.5 -23t22.5 -9.5t22.5 9.5t9.5 23
t-9.5 22.5t-22.5 9t-22.5 -9t-9.5 -22.5zM224 629zM192 629.5q0 -13.5 9.5 -23t22.5 -9.5t22.5 9.5t9.5 23t-9.5 22.5t-22.5 9t-22.5 -9t-9.5 -22.5z" />
    <glyph glyph-name="ChristmasTree" unicode="&#xe66e;" 
d="M512 469l-320 -426q4 -4 12.5 -9.5t38.5 -20.5t64 -26t89.5 -20.5t115.5 -9.5q44 0 85 5t72 12.5t58.5 16.5t46 18t32 16.5t20 12.5l6.5 5zM512 555l-256 -320q3 -3 10 -7.5t31 -15.5t51 -19t71.5 -15t92.5 -7t92 6.5t71.5 15t51.5 19.5t31 15.5t10 7.5v0zM512 661
l-192 -256q7 -4 21.5 -11.5t64 -19t106.5 -11.5t105 10.5t67 21.5l20 10zM512 811l36 -66l71 -11l-51 -50l10 -77l-66 36l-66 -36l10 77l-51 50l71 11zM737 170l-27 35q-87 -34 -198 -34t-198 34l-27 -35q99 -42 225 -42t225 42zM512 363q-76 0 -138 19l-28 -35
q73 -27 166 -27t166 27l-28 35q-62 -19 -138 -19zM512 643l-23 -13l-61 -81l38 21l46 24l46 -24l38 -21l-61 81zM480 501zM448 501.5q0 -13.5 9.5 -23t22.5 -9.5t22.5 9.5t9.5 23t-9.5 22.5t-22.5 9t-22.5 -9t-9.5 -22.5zM576 448zM555 448q0 -9 6 -15t15 -6t15 6t6 15
t-6 15t-15 6t-15 -6t-6 -15zM405 277zM384 277.5q0 -8.5 6.5 -15t15 -6.5t15 6.5t6.5 15t-6.5 15t-15 6.5t-15 -6.5t-6.5 -15zM491 213zM469 213.5q0 -8.5 6.5 -15t15 -6.5t15 6.5t6.5 15t-6.5 15t-15 6.5t-15 -6.5t-6.5 -15zM512 21zM491 21.5q0 -8.5 6 -15t15 -6.5t15 6.5
t6 15t-6 15t-15 6.5t-15 -6.5t-6 -15zM693 53zM661 53.5q0 -13.5 9.5 -23t23 -9.5t22.5 9.5t9 23t-9 22.5t-22.5 9t-23 -9t-9.5 -22.5zM597 256zM565 256q0 -13 9.5 -22.5t23 -9.5t22.5 9.5t9 22.5t-9 22.5t-22.5 9.5t-23 -9.5t-9.5 -22.5zM373 64zM341 64q0 -13 9.5 -22.5
t23 -9.5t22.5 9.5t9 22.5t-9 22.5t-22.5 9.5t-23 -9.5t-9.5 -22.5z" />
    <glyph glyph-name="Church" unicode="&#xe66f;" 
d="M875 213l-363 128l-363 -128v-256h726v256zM491 832h42v-213h-42v213zM448 789h128v-42h-128v42zM363 107q0 16 -9 32.5t-21.5 29.5t-25 23t-21.5 16t-9 5q-3 -2 -9 -5.5t-20.5 -15t-26 -23.5t-20.5 -29t-9 -33v-150h171v150zM832 107q0 16 -9 32.5t-21.5 29.5t-25 23
t-21 16t-8.5 5q-4 -2 -9.5 -5.5t-20.5 -15t-26 -23.5t-20.5 -29t-9.5 -33v-150h171v150zM619 -43h-214v427l107 107l107 -107v-427zM491 661h42l86 -277l-107 107l-107 -107zM405 344l-285 -111l16 -40l269 105v46zM619 344v-46l269 -105l16 40zM277 149zM256 149.5
q0 -8.5 6.5 -15t15 -6.5t15 6.5t6.5 15t-6.5 15t-15 6.5t-15 -6.5t-6.5 -15zM256 64q0 9 -5.5 20t-10.5 17l-5 6q-22 -22 -22 -43v-107h43v107zM341 64q0 9 -5 20t-11 17l-5 6q-21 -22 -21 -43v-107h42v107zM747 149zM725 149.5q0 -8.5 6.5 -15t15 -6.5t15 6.5t6.5 15
t-6.5 15t-15 6.5t-15 -6.5t-6.5 -15zM725 64q0 9 -5 20t-11 17l-5 6q-21 -22 -21 -43v-107h42v107zM811 64q0 9 -5.5 20t-10.5 17l-6 6q-21 -22 -21 -43v-107h43v107zM512 363zM469 362.5q0 -17.5 12.5 -30t30.5 -12.5t30.5 12.5t12.5 30t-12.5 30t-30.5 12.5t-30.5 -12.5
t-12.5 -30zM576 64q0 19 -16 40.5t-32 32.5l-16 12q-7 -4 -17.5 -12.5t-28.5 -31t-18 -41.5v-107h128v107z" />
    <glyph glyph-name="Cookies" unicode="&#xe670;" 
d="M619 491zM341 490.5q0 -114.5 81.5 -196t196 -81.5t196 81.5t81.5 196t-81.5 196t-196 81.5t-196 -81.5t-81.5 -196zM405 277zM128 277.5q0 -114.5 81.5 -196t196 -81.5t196 81.5t81.5 196t-81.5 196t-196 81.5t-196 -81.5t-81.5 -196zM373 288zM320 288
q0 -22 15.5 -37.5t37.5 -15.5t38 15.5t16 37.5t-16 37.5t-38 15.5t-37.5 -15.5t-15.5 -37.5zM416 437zM384 437.5q0 -13.5 9.5 -23t22.5 -9.5t22.5 9.5t9.5 23t-9.5 22.5t-22.5 9t-22.5 -9t-9.5 -22.5zM491 171zM448 171v0q0 -18 12.5 -30.5t30 -12.5t30 12.5t12.5 30.5v0v0
q0 17 -12.5 29.5t-30 12.5t-30 -12.5t-12.5 -29.5v0zM245 245zM213 245.5q0 -13.5 9.5 -23t23 -9.5t22.5 9.5t9 23t-9 22.5t-22.5 9t-23 -9t-9.5 -22.5zM544 309zM512 309.5q0 -13.5 9.5 -23t22.5 -9.5t22.5 9.5t9.5 23t-9.5 22.5t-22.5 9t-22.5 -9t-9.5 -22.5zM341 128z
M320 128q0 -9 6.5 -15t15 -6t15 6t6.5 15t-6.5 15t-15 6t-15 -6t-6.5 -15zM555 640zM512 640v0q0 -18 12.5 -30.5t30 -12.5t30 12.5t12.5 30.5v0v0q0 18 -12.5 30.5t-30 12.5t-30 -12.5t-12.5 -30.5v0zM672 544zM640 544q0 -13 9.5 -22.5t22.5 -9.5t22.5 9.5t9.5 22.5
t-9.5 22.5t-22.5 9.5t-22.5 -9.5t-9.5 -22.5zM693 672zM661 672q0 -13 9.5 -22.5t23 -9.5t22.5 9.5t9 22.5t-9 22.5t-22.5 9.5t-23 -9.5t-9.5 -22.5zM768 448zM747 448q0 -9 6 -15t15 -6t15 6t6 15t-6 15t-15 6t-15 -6t-6 -15z" />
    <glyph glyph-name="CinnamonSticks" unicode="&#xe671;" 
d="M767 619q-9 -8 -262.5 -258.5t-264.5 -261.5q-5 -6 -10 -13.5t-9.5 -21t0.5 -30t20 -32.5t32 -21t29.5 -1t20.5 12t265.5 256t268.5 258q13 12 21.5 26.5t8 36.5t-19.5 41q-49 51 -100 9zM767 619q-8 -7 -13 -19t0 -32t25 -41q16 -17 31.5 -24t27 -5.5t19.5 8.5
q13 12 21.5 26.5t8 36.5t-19.5 41q-49 51 -100 9zM871 612q-33 -35 -44 -47q23 23 38 6q7 -9 5.5 -17t-7.5 -13q-15 -11 -32.5 -6.5t-28.5 16.5t-15 30.5t5 30.5q9 7 18 7.5t14 -6.5q12 -15 -6 -32q5 1 18 8.5t24 15.5zM499 355q-249 -245 -259 -256q-5 -6 -10 -13.5
t-9.5 -21t0.5 -30t20 -32.5q7 -7 17 -13q21 12 32 31q10 16 209 335zM531 758q-7 -10 -191.5 -315t-192.5 -318q-4 -7 -6.5 -15.5t-3.5 -22.5t7.5 -29t27 -27t36.5 -12.5t29 6.5t17 17q5 9 194.5 313t196.5 316q10 15 15 31t-1 37t-29 35q-60 37 -99 -16zM531 758
q-6 -9 -7 -19.5t9.5 -27t35.5 -31.5q58 -37 76 -9q10 15 15 31t-1 37t-29 35q-60 37 -99 -16zM193 62q391 659 399 674q-17 -28 -36 -16q-8 6 -8.5 15.5t4.5 15.5q11 14 29 14t32 -10q14 -9 23 -27t1 -29q-6 -9 -14.5 -12t-15.5 3q-16 12 -2 33q-11 -6 -412 -661v0z" />
    <glyph glyph-name="Cruse" unicode="&#xe672;" 
d="M704 640v0q15 0 30 -8.5t23 -20.5q19 -29 5 -62q-5 -11 -23 -28q-28 -27 -38 -50q-69 4 -88 18q-4 3 -7 35q-2 21 -6 43q-10 51 17 73h87zM704 704h-104l-5 -2.5t-11.5 -7t-15.5 -13t-16 -19.5t-12.5 -27t-6 -35.5t3.5 -44.5q3 -12 4.5 -30t2.5 -28.5t6 -24.5t12.5 -22.5
t22.5 -18t37 -14.5t55 -8.5t77 -3.5q-3 21 4 36.5t17 24.5t24 24.5t22 33.5q15 32 10.5 64t-20.5 58t-44.5 42t-62.5 16zM789 299q0 36 -19.5 77.5t-43.5 72t-44 60.5t-21 46q0 56 4 79t15 49q5 9 -1.5 15t-17.5 6q-46 0 -88 13.5t-67 29.5t-58 29t-64 13q-70 0 -117 -28
q-11 -6 -11 -20q0 -9 6 -16q39 -42 59 -79.5t20 -90.5q0 -16 -20 -44.5t-44 -57.5t-44 -71.5t-20 -82.5q0 -39 7 -76.5t18 -66.5t24 -54.5t26.5 -43t24 -30.5t17.5 -19.5l7 -6.5q11 -12 23 -17.5t18 -5.5h6h230q19 -4 47 23l13.5 14.5t32 41.5t37.5 62t32 83t13 96zM668 533
q-7 13 -7 22v21h-321q1 -14 1 -21q0 -9 -6 -22h333zM501.5 363q39.5 0 67.5 -28.5t28 -68t-28 -67.5t-67.5 -28t-68 28t-28.5 67.5t28.5 68t68 28.5zM501 405v0q-57 0 -97.5 -40.5t-40.5 -98t40.5 -98t97.5 -40.5v0q58 0 98.5 40.5t40.5 98t-40.5 98t-98.5 40.5zM725 267
q0 27 15 50.5t39 34.5q-7 21 -17 40q-33 -16 -56 -52.5t-23 -72.5v0q0 -35 21 -70.5t51 -51.5q9 20 16 40q-19 12 -32.5 36t-13.5 46zM277 267q0 -26 -13 -48t-35 -35q7 -23 14 -41q32 15 54.5 51.5t22.5 72.5t-23.5 73t-57.5 53q-10 -19 -17 -40q25 -12 40 -35t15 -51z
M318 21l10 -10l7 -7l2 -2q11 -12 23 -17.5t18 -6t6 0.5h230q19 -4 47 23q7 7 18 19h-361v0z" />
    <glyph glyph-name="Firework" unicode="&#xe673;" 
d="M852 368l-356 356l421 65zM852 368l-175 175l240 246zM350 60l-162 162q-14 13 -14 32t14 33l373 373l227 -227l-373 -373q-14 -14 -33 -14t-32 14zM188 222l65 -65l194 -65l65 65l-335 112q-3 -7 -3 -15q0 -19 14 -32zM561 660l-65 -65l194 -65zM366 465l341 -113l64 64
l-340 114zM236 335l341 -113l65 65l-341 113z" />
    <glyph glyph-name="Dreidel" unicode="&#xe674;" 
d="M823 789l94 -94l-236 -236l-94 94zM823 789l31 -31l-220 -220l-31 31zM131 443q-13 -12 -19.5 -57t-4 -101t24.5 -118t61.5 -101.5t101.5 -61.5t118 -24.5t101 4t57 18.5l299 299l-440 441zM335 239q-4 -2 -11.5 -5t-30 -8.5t-42.5 -6t-45.5 8t-44 27t-28 45.5t-11.5 49
t0.5 47t4.5 33.5t4 13.5v0l299 299l204 -204zM367 207q-2 -4 -5 -12t-8.5 -30t-6 -42t8 -45.5t27 -44t45.5 -28t49 -11.5t47 0.5t33.5 4.5t13.5 3v0l299 299l-204 205zM428 601q-16 -30 -31 -45l-31 -31q18 -3 25 -11q5 -4 4 -15.5t-10 -20.5q-2 -2 -15 -16t-21 -21t-10 -7
q-4 1 -16 12q-13 14 -23 6l-42 -28q16 -20 21 -26l12 -23q26 2 45 19q9 9 21.5 30.5t19.5 27.5q6 6 30 25t34 29q25 25 1 52q-4 4 -6.5 10t-4 11.5t-2.5 10.5t-1 8v3zM589 379q-12 -19 -27 -34q-7 -6 -16.5 -13.5t-15.5 -11.5l-6 -4q14 -5 18 -9q11 -11 1 -23l-49 -49
q-8 -8 -16 -23.5t-6.5 -43t24.5 -49.5q21 -21 42 -25.5t41 4.5t48 31l30 25t31 25.5t23 16.5q24 15 7 36q-6 8 -10 15t-5 9l-1 3q-12 -23 -25 -35q-6 -5 -14.5 -10t-13.5 -7l-5 -2q12 -5 17.5 -9.5t-17.5 -28.5q-10 -9 -24 -17t-33.5 -8t-31.5 16q20 22 39 40t28.5 25.5
t22 16.5l12.5 9q22 17 12 35l-20 30q-15 -23 -26 -33q-4 -4 -13 -9t-16 -8l-7 -3q13 -3 15 -10q1 -3 0 -6.5t-4.5 -8t-6.5 -7.5t-9.5 -9t-9.5 -9l-36 -33q-2 2 -4 5t-6 12t-4 18.5t6.5 23t20.5 25.5q34 30 60 47q7 5 9.5 13.5t-3.5 18.5zM697 475l-94 94l125 -63z" />
    <glyph glyph-name="Fireplace" unicode="&#xe675;" 
d="M896 21h-768v726h768v-726zM128 619h768v-22h-768v22zM832 21h-640v171q0 133 93.5 226.5t226.5 93.5t226.5 -93.5t93.5 -226.5v-171zM768 21h-512v171q0 106 75 181t181 75t181 -75t75 -181v-171zM939 619h-854v85h854v-85zM405 85q-1 1 -4 2.5t-10.5 7t-13 12t-10 17.5
t-4.5 23q0 19 10.5 40.5t21.5 34.5l10 13q1 -3 2.5 -6t5.5 -12.5t8.5 -14.5t12 -10t14.5 0q11 5 12.5 21.5t-1 36t9.5 45.5t43 46q-4 -19 0.5 -32t13.5 -22t19 -18.5t19 -29.5t12 -47q10 14 11.5 29t7 28t24.5 28q-4 -20 6.5 -37t23.5 -39t12 -52q0 -18 -10.5 -34t-21.5 -23
l-10 -7h-214zM451 64q-23 15 -30 38q-2 6 -2 11t0.5 9.5t1.5 9t2.5 7.5t3 5.5t2.5 3.5l1 1q5 -8 22 -16t34 -14.5t31 -20.5t13 -34h-79zM583 64q24 15 31 38q1 6 1.5 11t-0.5 9.5l-2 9t-2.5 7.5t-3 5.5t-2 3.5l-0.5 1q-6 -9 -27 -19t-37 -25t-16 -41h58zM501 64q-2 -1 -5 -2
t-9 5t-7 21q-2 17 4.5 35.5t11 34.5t-1.5 55q99 -78 58 -149h-51zM672 43h-320v0q-4 0 -7.5 3t-3.5 7v43q0 4 3.5 7.5t7.5 3.5h320q4 0 7.5 -3.5t3.5 -7.5v-43q0 -4 -3.5 -7t-7.5 -3zM704 597q-3 -3 -8.5 -8t-25 -15t-40 -15t-53 -2t-65.5 19v64q23 -21 51 -31t52 -9t44.5 5
t32.5 9l12 5v-22zM896 597q-2 -2 -7 -5t-21 -9.5t-34.5 -8.5t-48 3.5t-60.5 20.5v29q35 -16 77.5 -18t68.5 4l25 6v-22zM715 629zM683 629.5q0 -13.5 9 -23t22.5 -9.5t23 9.5t9.5 23t-9.5 22.5t-23 9t-22.5 -9t-9 -22.5zM320 597q3 -3 8.5 -8t25 -15t40 -15t53 -2t65.5 19
v64q-23 -21 -51 -31t-52 -9t-44.5 5t-32.5 9l-12 5v-22zM128 597q2 -2 7 -5t21 -9.5t34.5 -8.5t48 3.5t60.5 20.5v29q-35 -16 -77.5 -18t-68.5 4l-25 6v-22zM309 629zM277 629.5q0 -13.5 9.5 -23t23 -9.5t22.5 9.5t9 23t-9 22.5t-22.5 9t-23 -9t-9.5 -22.5zM512 619z
M469 618.5q0 -17.5 12.5 -30t30.5 -12.5t30.5 12.5t12.5 30t-12.5 30t-30.5 12.5t-30.5 -12.5t-12.5 -30z" />
    <glyph glyph-name="HanukkahDonut" unicode="&#xe676;" 
d="M939 448q0 57 -34 114.5t-90.5 103t-136.5 74t-166 28.5t-166 -28.5t-136.5 -74t-90.5 -103t-34 -114.5v-149q0 -76 57 -145t156 -111.5t214 -42.5t214 42.5t156 111.5t57 145v74v75zM512 171q-246 0 -373 148q-40 47 -54 86v-21q1 -6 3 -16t13.5 -38.5t28.5 -55
t50.5 -58.5t76 -55t109 -38.5t146.5 -15.5t146.5 15.5t109 38.5t76 55t50.5 58.5t28.5 55t13.5 38.5t3 16v0v21q-2 -5 -5.5 -13t-19 -32.5t-35 -47t-54.5 -49.5t-77 -46.5t-103.5 -32.5t-132.5 -13zM235 554.5q0 -79.5 81 -135.5t196 -56t196 56t81 135.5t-81 136t-196 56.5
t-196 -56.5t-81 -136zM597 661q0 -35 -25 -60t-60 -25t-60 25t-25 60q0 21 21 56.5t43 60.5l21 26q10 -11 24 -28t37.5 -55.5t23.5 -59.5zM491 619q-18 0 -30.5 12.5t-12.5 29.5q0 11 10.5 28.5t21.5 30.5l11 12q0 -3 1 -8.5t3.5 -20.5t4 -28t2 -26.5t-2.5 -21.5t-8 -8z" />
    <glyph glyph-name="GingerbreadHouse" unicode="&#xe677;" 
d="M789 0h-554q-27 0 -45.5 19t-18.5 45v448h682v-448q0 -26 -18.5 -45t-45.5 -19zM153 571l359 240l359 -240q10 -7 17.5 -20.5t7.5 -25.5q0 -23 -16.5 -39.5t-39.5 -16.5h-656q-14 -9 -31 -9q-23 0 -39.5 16.5t-16.5 39.5t16.5 39t39.5 16zM597 43h-170v0
q-18 0 -30.5 12.5t-12.5 29.5v171q0 53 37.5 90.5t90.5 37.5t90.5 -37.5t37.5 -90.5v-171q0 -17 -12.5 -29.5t-30.5 -12.5zM512 341q-35 0 -60 -25t-25 -60v-171h170v171q0 35 -25 60t-60 25zM512 747zM491 746.5q0 -8.5 6 -15t15 -6.5t15 6.5t6 15t-6 15t-15 6.5t-15 -6.5
t-6 -15zM576 704zM555 704q0 -9 6 -15t15 -6t15 6t6 15t-6 15t-15 6t-15 -6t-6 -15zM640 661zM619 661.5q0 -8.5 6 -15t15 -6.5t15 6.5t6 15t-6 15t-15 6.5t-15 -6.5t-6 -15zM704 619zM683 618.5q0 -8.5 6 -15t15 -6.5t15 6.5t6 15t-6 15t-15 6.5t-15 -6.5t-6 -15zM768 576z
M747 576q0 -9 6 -15t15 -6t15 6t6 15t-6 15t-15 6t-15 -6t-6 -15zM832 533zM811 533.5q0 -8.5 6 -15t15 -6.5t15 6.5t6 15t-6 15t-15 6.5t-15 -6.5t-6 -15zM789 405zM768 405.5q0 -8.5 6.5 -15t15 -6.5t15 6.5t6.5 15t-6.5 15t-15 6.5t-15 -6.5t-6.5 -15zM789 320zM768 320
q0 -9 6.5 -15t15 -6t15 6t6.5 15t-6.5 15t-15 6t-15 -6t-6.5 -15zM789 235zM768 234.5q0 -8.5 6.5 -15t15 -6.5t15 6.5t6.5 15t-6.5 15t-15 6.5t-15 -6.5t-6.5 -15zM789 149zM768 149.5q0 -8.5 6.5 -15t15 -6.5t15 6.5t6.5 15t-6.5 15t-15 6.5t-15 -6.5t-6.5 -15zM789 64z
M768 64q0 -9 6.5 -15t15 -6t15 6t6.5 15t-6.5 15t-15 6t-15 -6t-6.5 -15zM704 64zM683 64q0 -9 6 -15t15 -6t15 6t6 15t-6 15t-15 6t-15 -6t-6 -15zM320 64zM299 64q0 -9 6 -15t15 -6t15 6t6 15t-6 15t-15 6t-15 -6t-6 -15zM235 405zM213 405.5q0 -8.5 6.5 -15t15 -6.5
t15 6.5t6.5 15t-6.5 15t-15 6.5t-15 -6.5t-6.5 -15zM235 320zM213 320q0 -9 6.5 -15t15 -6t15 6t6.5 15t-6.5 15t-15 6t-15 -6t-6.5 -15zM256 491zM235 490.5q0 -8.5 6 -15t15 -6.5t15 6.5t6 15t-6 15t-15 6.5t-15 -6.5t-6 -15zM768 491zM747 490.5q0 -8.5 6 -15t15 -6.5
t15 6.5t6 15t-6 15t-15 6.5t-15 -6.5t-6 -15zM235 235zM213 234.5q0 -8.5 6.5 -15t15 -6.5t15 6.5t6.5 15t-6.5 15t-15 6.5t-15 -6.5t-6.5 -15zM235 149zM213 149.5q0 -8.5 6.5 -15t15 -6.5t15 6.5t6.5 15t-6.5 15t-15 6.5t-15 -6.5t-6.5 -15zM235 64zM213 64q0 -9 6.5 -15
t15 -6t15 6t6.5 15t-6.5 15t-15 6t-15 -6t-6.5 -15zM448 704zM427 704q0 -9 6 -15t15 -6t15 6t6 15t-6 15t-15 6t-15 -6t-6 -15zM384 661zM363 661.5q0 -8.5 6 -15t15 -6.5t15 6.5t6 15t-6 15t-15 6.5t-15 -6.5t-6 -15zM320 619zM299 618.5q0 -8.5 6 -15t15 -6.5t15 6.5
t6 15t-6 15t-15 6.5t-15 -6.5t-6 -15zM256 576zM235 576q0 -9 6 -15t15 -6t15 6t6 15t-6 15t-15 6t-15 -6t-6 -15zM192 533zM171 533.5q0 -8.5 6 -15t15 -6.5t15 6.5t6 15t-6 15t-15 6.5t-15 -6.5t-6 -15zM533 448h-42q-27 0 -45.5 19t-18.5 45v43q0 26 18.5 45t45.5 19h42
q27 0 45.5 -19t18.5 -45v-43q0 -26 -18.5 -45t-45.5 -19zM533 491h-42v0q-9 0 -15.5 6t-6.5 15v43q0 8 6.5 14.5t15.5 6.5h42v0q9 0 15.5 -6.5t6.5 -14.5v-43q0 -9 -6.5 -15t-15.5 -6z" />
    <glyph glyph-name="HanukkahGlass" unicode="&#xe678;" 
d="M512 192v0q-18 0 -30.5 12.5t-12.5 30.5q0 6 11 36.5t11 48.5q0 11 8 27t13.5 16t13 -16t7.5 -27q0 -18 11 -48.5t11 -36.5q0 -18 -12.5 -30.5t-30.5 -12.5zM512 213q18 0 30.5 -12.5t12.5 -29.5q0 -6 -11 -37t-11 -49q0 -10 -8 -26t-13.5 -16t-13 15.5t-7.5 26.5
q0 18 -11 49t-11 37q0 17 12.5 29.5t30.5 12.5zM704 -21h-384v21q7 2 18.5 5t41 12.5t52 19.5t41 23t18.5 25q0 20 10.5 28.5t21 0t10.5 -28.5q0 -19 43 -40t85 -33l43 -12v-21zM768 768h-512l43 -107l21 -192q12 -74 64.5 -122t128 -48t129 49t62.5 121l21 192zM512 612
l64 -106h-128zM512 683l-128 -214h256zM576 582l-64 -106l-64 106h128zM640 619h-256l128 -214z" />
    <glyph glyph-name="GingerbreadMan" unicode="&#xe679;" 
d="M512 661zM363 661.5q0 -61.5 43.5 -105.5t105.5 -44t105.5 44t43.5 105.5t-43.5 105.5t-105.5 44t-105.5 -44t-43.5 -105.5zM647 405h-270l-199 45q-21 4 -35.5 22.5t-14.5 39.5q0 26 19 45t45 19q7 0 14 -2l185 -41h242l185 41q7 2 15 2q26 0 45 -18.5t19 -45.5
q0 -21 -15 -39.5t-36 -22.5zM809 58q-5 20 -23.5 34.5t-38.5 14.5q-8 0 -16 -2l-31 -8l-39 351h-298l-39 -351l-31 8q-8 2 -16 2q-20 0 -38.5 -14.5t-23.5 -34.5q-2 -7 -2 -15q0 -21 14.5 -39t34.5 -23l85 -22q8 -2 16 -2q17 0 34 11t24 26l91 113l91 -113q7 -15 24 -26
t34 -11q8 0 16 2l85 22q20 5 34.5 23t14.5 39q0 8 -2 15zM512 277q-26 0 -45 -18.5t-19 -45t19 -45.5t45 -19t45 19t19 45.5t-19 45t-45 18.5zM512 405q-26 0 -45 -18.5t-19 -45t19 -45.5t45 -19t45 19t19 45.5t-19 45t-45 18.5zM512 341zM469 341.5q0 -17.5 12.5 -30
t30.5 -12.5t30.5 12.5t12.5 30t-12.5 30t-30.5 12.5t-30.5 -12.5t-12.5 -30zM512 213zM469 213.5q0 -17.5 12.5 -30t30.5 -12.5t30.5 12.5t12.5 30t-12.5 30t-30.5 12.5t-30.5 -12.5t-12.5 -30zM427 491q-1 0 -2.5 -0.5t-5 -2.5t-6.5 -6t-5.5 -13t-2.5 -21t2.5 -21t5.5 -13
t6 -6t5 -2l3 -1q19 0 40 11t33 21l12 11q-5 5 -13 12t-30.5 19t-41.5 12zM597 491q1 0 2.5 -0.5t5 -2.5t6.5 -6t5.5 -13t2.5 -21t-2.5 -21t-5.5 -13t-6 -6t-5 -2l-3 -1q-19 0 -40 11t-33 21l-12 11q5 5 13 12t30.5 19t41.5 12zM512 448zM491 448q0 -9 6 -15t15 -6t15 6t6 15
t-6 15t-15 6t-15 -6t-6 -15zM792 569l-41 -10l35 -123l41 9zM700 97l-5 50q-4 -2 -7 -5l-105 -123l20 -25q2 -4 6 -9l98 114zM197 445l41 -9l35 123l-41 10zM336 142q-3 3 -7 5l-5 -50l-7 2l98 -114q3 5 6 9l20 25zM459 715zM427 714.5q0 -13.5 9 -22.5t22.5 -9t23 9
t9.5 22.5t-9.5 23t-23 9.5t-22.5 -9.5t-9 -23zM565 715zM533 714.5q0 -13.5 9.5 -22.5t23 -9t22.5 9t9 22.5t-9 23t-22.5 9.5t-23 -9.5t-9.5 -23z" />
    <glyph glyph-name="Hanukkah" unicode="&#xe67a;" 
d="M128 640h43v-213h-43v213zM213 640h43v-213h-43v213zM299 640h42v-213h-42v213zM384 640h43v-213h-43v213zM491 683h42v-278h-42v278zM597 640h43v-213h-43v213zM683 640h42v-213h-42v213zM768 640h43v-213h-43v213zM853 640h43v-213h-43v213zM533 725q0 -8 -6 -14.5
t-15 -6.5t-15 6.5t-6 14.5q0 6 5 16.5t11 18.5l5 8q21 -31 21 -43zM427 683q0 -9 -6.5 -15.5t-15 -6.5t-15 6.5t-6.5 15.5q0 5 5.5 15.5t10.5 18.5l5 8q22 -31 22 -42zM341 683q0 -9 -6 -15.5t-15 -6.5t-15 6.5t-6 15.5q0 5 5 15.5t11 18.5l5 8q21 -31 21 -42zM256 683
q0 -9 -6.5 -15.5t-15 -6.5t-15 6.5t-6.5 15.5q0 5 5.5 15.5t10.5 18.5l6 8q21 -31 21 -42zM171 683q0 -9 -6.5 -15.5t-15 -6.5t-15 6.5t-6.5 15.5q0 5 5.5 15.5t10.5 18.5l5 8q22 -31 22 -42zM896 683q0 -9 -6.5 -15.5t-15 -6.5t-15 6.5t-6.5 15.5q0 5 5.5 15.5t10.5 18.5
l6 8q21 -31 21 -42zM811 683q0 -9 -6.5 -15.5t-15 -6.5t-15 6.5t-6.5 15.5q0 5 5.5 15.5t10.5 18.5l5 8q22 -31 22 -42zM725 683q0 -9 -6 -15.5t-15 -6.5t-15 6.5t-6 15.5q0 5 5 15.5t11 18.5l5 8q21 -31 21 -42zM640 683q0 -9 -6.5 -15.5t-15 -6.5t-15 6.5t-6.5 15.5
q0 5 5.5 15.5t10.5 18.5l6 8q21 -31 21 -42zM107 427h341v-43h-341v43zM576 427h341v-43h-341v43zM491 469h42v-469h-42v469zM469 491h86v-43h-86v43zM597 43h-170v0q-18 0 -30.5 -12.5t-12.5 -30.5h256q0 18 -12.5 30.5t-30.5 12.5zM597 384h43v-43h-43v43zM491 448h42v-43
h-42v43zM683 384h42v-43h-42v43zM768 384h43v-43h-43v43zM853 384h43v-43h-43v43zM128 384h43v-43h-43v43zM213 384h43v-43h-43v43zM299 384h42v-43h-42v43zM384 384h43v-43h-43v43z" />
    <glyph glyph-name="HolyBible" unicode="&#xe67b;" 
d="M811 811h-512q-20 0 -36.5 -5.5t-33 -19t-26 -40t-11.5 -63.5v0v-619v1q2 -27 10.5 -46t21.5 -27t23.5 -10.5t21.5 -2.5h520q38 5 43 42v768q0 9 -6.5 15.5t-14.5 6.5zM469 704h128v-469h-128v469zM363 597h341v-128h-341v128zM512 661h43v-384h-43v384zM405 555h256v-43
h-256v43zM768 128h-499q-34 0 -34 -53.5t34 -53.5h499v107zM811 128h-43v-107h43q9 0 14.5 6t6 9.5t0.5 6.5v106q0 -9 -6 -15t-15 -6v0zM235 85h533v43h-499q-31 0 -34 -43z" />
    <glyph glyph-name="HanukkahGelt" unicode="&#xe67c;" 
d="M672 544zM448 544q0 -93 65.5 -158.5t158.5 -65.5t158.5 65.5t65.5 158.5t-65.5 158.5t-158.5 65.5t-158.5 -65.5t-65.5 -158.5zM476 656q-22 -38 -28 -82q93 -11 166.5 -85t85.5 -167q43 6 82 28q-20 117 -104.5 201.5t-201.5 104.5zM651 601q12 0 18 -8q8 -12 9 -40v-7
q0 -29 -9 -42q-6 -8 -17.5 -8t-17.5 8q-9 12 -9 40v7q0 29 9 42q5 8 17 8zM651.5 627q-25.5 0 -39 -19.5t-13.5 -56.5v-7q0 -36 13.5 -55.5t38.5 -19.5q26 0 39.5 20t13.5 57v0v7q0 36 -13.5 55t-39 19zM778 601q12 0 17 -8q9 -12 9 -40v-7q0 -29 -9 -42q-5 -8 -17 -8t-17 8
q-9 12 -9 40v7q0 29 9 42q5 8 17 8zM777.5 627q-25.5 0 -39 -19.5t-13.5 -56.5v-7q1 -36 14.5 -55.5t38.5 -19.5q26 0 39.5 20t13.5 57v0v7q-1 36 -14.5 55t-39 19zM572 627l-62 -22v-23l40 13v-126h26v158h-4zM416 288zM128 288q0 -119 84.5 -203.5t203.5 -84.5t203.5 84.5
t84.5 203.5t-84.5 203.5t-203.5 84.5t-203.5 -84.5t-84.5 -203.5zM405 405h22v-320h-22v320zM491 85h-150q0 9 6.5 15.5t15.5 6.5h106q9 0 15.5 -6.5t6.5 -15.5zM597 405v-42q0 -71 -50 -121t-120 -50h-22q-70 0 -120 50t-50 121v42h-22v-42q0 -80 56.5 -136t135.5 -56h22
q79 0 135.5 56t56.5 136v42h-22zM533 405v-42q0 -44 -31 -75.5t-75 -31.5h-22q-44 0 -75 31.5t-31 75.5v42h-22v-42q0 -53 37.5 -90.5t90.5 -37.5h22q53 0 90.5 37.5t37.5 90.5v42h-22zM469 405v-42q0 -18 -12.5 -30.5t-29.5 -12.5h-22q-17 0 -29.5 12.5t-12.5 30.5v42h-22
v-42q0 -27 19 -45.5t45 -18.5h22q26 0 45 18.5t19 45.5v42h-22z" />
    <glyph glyph-name="IceSkate" unicode="&#xe67d;" 
d="M533 619q0 -18 -12.5 -30.5t-29.5 -12.5h-64v0q-18 0 -30.5 12.5t-12.5 30.5v106q0 64 64 64h64q2 1 5.5 0.5t9.5 -6t6 -15.5v-149zM171 277q0 55 10.5 105.5t21 88t10.5 62.5v171l235 43q3 1 9 2t20.5 1t26 -3t20.5 -14t9 -29v-171v-5.5t1 -15.5t4 -23.5t11 -28
t19.5 -31.5t31.5 -32t45.5 -30.5t62.5 -26t81 -20.5q22 -4 39.5 -10.5t29 -12.5t19 -16t11.5 -16.5t6 -19t2.5 -18t0 -19t-0.5 -16.5q0 -15 -25.5 -24.5t-73.5 -13t-78.5 -4.5t-78.5 -1q-62 0 -145 26.5t-132 59.5zM235 171h64v-150h-64v150zM619 149h64v-128h-64v128z
M811 0h-704v43h704q8 0 16 2t17 12.5t9 27.5q0 26 -18.5 39.5t-30.5 13.5l7 33q31 0 58 -21.5t27 -64t-27 -64t-58 -21.5zM363 149h-171q-21 86 -21 128h42l150 -20v-108zM640 128q-45 0 -91.5 11t-71 21.5t-65.5 29.5q-39 19 -56 24q-61 21 -164 21v42q110 0 177 -22
q19 -6 62 -27q37 -17 60.5 -27t65.5 -20t83 -10q126 0 256 21v-43q-129 -21 -256 -21zM469 661zM448 661.5q0 -8.5 6.5 -15t15 -6.5t15 6.5t6.5 15t-6.5 15t-15 6.5t-15 -6.5t-6.5 -15zM469 576zM448 576q0 -9 6.5 -15t15 -6t15 6t6.5 15t-6.5 15t-15 6t-15 -6t-6.5 -15z
M469 491zM448 490.5q0 -8.5 6.5 -15t15 -6.5t15 6.5t6.5 15t-6.5 15t-15 6.5t-15 -6.5t-6.5 -15zM491 405zM469 405.5q0 -8.5 6.5 -15t15 -6.5t15 6.5t6.5 15t-6.5 15t-15 6.5t-15 -6.5t-6.5 -15zM555 341zM533 341.5q0 -8.5 6.5 -15t15 -6.5t15 6.5t6.5 15t-6.5 15t-15 6.5
t-15 -6.5t-6.5 -15zM640 299zM619 298.5q0 -8.5 6 -15t15 -6.5t15 6.5t6 15t-6 15t-15 6.5t-15 -6.5t-6 -15z" />
    <glyph glyph-name="JingleBell" unicode="&#xe67e;" 
d="M491 691l469 -136q-2 1 -5 3t-12.5 8.5t-17.5 14t-20 19t-20.5 23t-18 27t-12.5 30t-5 32.5t5 35q-3 -2 -7.5 -3.5t-18.5 -6t-27 -7t-31 -2.5t-33 5q-24 7 -42.5 32t-25.5 46l-7 21q-4 -7 -10.5 -18t-26.5 -38t-39.5 -46.5t-46 -32.5t-48.5 -6zM533 691l-469 -136
q2 1 5 3t12.5 8.5t17.5 14t20 19t20.5 23t18 27t12.5 30t5 32.5t-5 35q3 -2 7.5 -3.5t18.5 -6t27 -7t31 -2.5t33 5q24 7 42.5 32t25.5 46l7 21q4 -7 10.5 -18t26.5 -38t39.5 -46.5t46 -32.5t48.5 -6zM491 691l469 -136q-6 -1 -17 -3t-40.5 -11.5t-53.5 -22.5t-48 -37
t-33 -54q-1 3 -4.5 8t-13.5 19t-21 25.5t-26.5 23t-30.5 16.5q-24 7 -53 0t-47 -18l-17 -10q0 3 0.5 9.5t0.5 25.5t-1 36t-5.5 39.5t-11 39.5t-19 31t-28.5 19zM533 691l-469 -136q6 -1 17 -3t40.5 -11.5t53.5 -22.5t48 -37t33 -54q1 3 4.5 8t13.5 19t21 25.5t26.5 23
t30.5 16.5q24 7 53 0t47 -18l17 -10q0 3 -0.5 9.5t-0.5 25.5t1 36t5.5 39.5t11 39.5t19 31t28.5 19zM512 43zM427 42.5q0 -35.5 25 -60.5t60 -25t60 25t25 60.5t-25 60.5t-60 25t-60 -25t-25 -60.5zM595 23q2 11 2 20q0 10 -3 23q-41 -2 -82 -2t-82 2q-3 -11 -3 -23
q0 -9 2 -20q42 -2 83 -2t83 2zM704 145v346q0 79 -56.5 135.5t-135.5 56.5t-135.5 -56.5t-56.5 -135.5v-346h384zM875 149.5q0 -35.5 -103 -60.5t-260 -25t-260 25t-103 60.5t103 60.5t260 25t260 -25t103 -60.5zM149 149q0 14 27 49t59 71t58.5 75.5t26.5 60.5q0 23 60 36
t132 13t132 -13t60 -36q0 -21 26.5 -60.5t58.5 -75t59 -71t27 -49.5q0 -25 -270 -31q-286 -6 -413 15q-43 7 -43 16zM198 226q-17 -21 -28 -36q30 -11 68 -23.5t121 -27t165 -14.5q176 0 330 65q-13 18 -28 35q-78 -32 -165 -45t-154.5 -11.5t-136.5 13.5t-105 22t-67 22z
M469 683zM427 683v0q0 -18 12.5 -30.5t30 -12.5t30 12.5t12.5 30.5v0v0q0 17 -12.5 29.5t-30 12.5t-30 -12.5t-12.5 -29.5v0zM555 683zM512 683v0q0 -18 12.5 -30.5t30 -12.5t30 12.5t12.5 30.5v0v0q0 17 -12.5 29.5t-30 12.5t-30 -12.5t-12.5 -29.5v0zM512 619zM469 618.5
q0 -17.5 12.5 -30t30.5 -12.5t30.5 12.5t12.5 30t-12.5 30t-30.5 12.5t-30.5 -12.5t-12.5 -30z" />
    <glyph glyph-name="Lantern" unicode="&#xe67f;" 
d="M619 747q-46 21 -107 21q-17 0 -34.5 -2t-29.5 -5.5t-22.5 -6.5t-15.5 -5l-5 -2v64q31 21 107 21q34 0 60.5 -5.5t36.5 -10.5l10 -5v-64zM619 299q-46 -22 -107 -22q-27 0 -53.5 5.5t-40.5 10.5l-13 6v-86q31 -21 107 -21q34 0 60.5 5.5t36.5 10.5l10 5v86zM512 149z
M469 149.5q0 -17.5 12.5 -30t30.5 -12.5t30.5 12.5t12.5 30t-12.5 30t-30.5 12.5t-30.5 -12.5t-12.5 -30zM917 512q0 -68 -54 -127t-147.5 -94t-203.5 -35t-203.5 35t-147.5 94t-54 127t54 127t147.5 94t203.5 35t203.5 -35t147.5 -94t54 -127zM163 640h698q-34 36 -84 64
h-530q-50 -28 -84 -64zM107 512h810q0 31 -13 64h-784q-13 -33 -13 -64zM247 320q115 -64 265 -64t265 64h-530zM120 448q15 -34 43 -64h698q28 30 43 64h-784zM444 764q-103 -113 -103 -252t103 -252q36 -4 68 -4t68 4q103 113 103 252t-103 252q-36 4 -68 4t-68 -4z
M658 384q12 32 19 64h-330q7 -32 19 -64h292zM625 320h-226q20 -32 45 -60q36 -4 68 -4t68 4q25 28 45 60zM347 576q-6 -32 -6 -64h342q0 32 -6 64h-330zM399 704q-20 -31 -33 -64h292q-13 33 -33 64h-226zM661 512q0 -48 -13.5 -93t-34.5 -78t-36 -51.5t-29 -32.5
q32 2 64 7q92 113 92 248t-92 248q-32 5 -64 7q14 -14 29 -32.5t36 -51.5t34.5 -78t13.5 -93zM476 767q-32 -2 -64 -7q-92 -114 -92 -248.5t92 -247.5q33 -5 64 -7q-14 14 -29 32.5t-36 51.5t-34.5 78t-13.5 93t13.5 93t34.5 78t36 51.5t29 32.5zM469 -64q0 38 11 80.5
t21 66.5l11 24q5 -10 12 -26.5t19 -61.5t12 -83h-86z" />
    <glyph glyph-name="Pie" unicode="&#xe680;" horiz-adv-x="1025" 
d="M981 407q0 2 -1.5 4t-1.5 3q21 27 7 60q-8 19 -24.5 29.5t-35.5 8.5q15 41 -17 70q-14 13 -33 16.5t-35 -3.5q0 18 -10.5 34t-28.5 24q-37 17 -66 -9q-5 17 -18.5 29.5t-30.5 15.5q-37 7 -62 -21q-18 33 -53 36t-58 -28q-20 31 -57 28q-40 -4 -54 -34q-24 28 -61 21
q-18 -3 -31.5 -15.5t-18.5 -29.5q-29 26 -66 9q-38 -18 -38 -58q-37 17 -68 -10q-15 -13 -19.5 -32t2.5 -37q-20 0 -36 -10t-24 -28q-14 -31 4 -60q0 -2 -1 -5t-1 -5q-3 -13 0 -26q-10 -17 -8 -36.5t17 -33.5q14 -18 35.5 -21.5t40.5 6.5q2 -20 14 -34.5t31 -21.5
q39 -10 64 15q14 -34 49.5 -40.5t59.5 21.5q15 -33 51 -36h7q32 0 53 27q2 -4 11 -12q19 -20 44 -20h5q28 0 44 20q5 4 9 12q23 -30 58 -27q36 3 51 36q24 -28 59 -21q40 7 50 40q28 -25 64 -15q19 7 31 21.5t13 32.5q19 -10 41 -6.5t36 19t16.5 36.5t-7.5 38q0 13 -2 23z
M626 198zM769 343q-30 -22 -67 -32.5t-69 -9.5t-60 5.5t-44 10l-16 5.5l-16.5 -5.5t-42.5 -9.5t-62 -6.5t-67.5 10t-67.5 32.5q-114 -60 -220 28q-22 19 -36 36q3 -8 7.5 -22.5t20 -55.5t32 -77t41 -77t49.5 -66q7 -3 19.5 -7t52.5 -15.5t80.5 -19.5t98.5 -15t111 -7
q86 0 176.5 16t138.5 32l48 16q39 40 76.5 115.5t55 127t17.5 55.5q-4 -5 -12 -14.5t-34 -30t-54 -32t-70.5 -10.5t-85.5 23zM513 322l43 -21l-43 -256l-42 256zM215 343l85 -277v256l-43 21h-42zM769 343l-42 -21v-256l85 277h-43zM1013 427q-8 3 -16.5 -1t-11.5 -12
q-2 -5 -6 -13t-21.5 -25.5t-38.5 -25.5q-58 -23 -141 13l-11 4l-10 -6q-30 -21 -65.5 -31t-63 -9.5t-54 5.5t-38.5 9t-16 6l-7 5l-8 -5l-5 -1.5t-13.5 -4t-20 -5.5t-25.5 -5t-30 -3t-34 0.5t-35.5 5.5t-37 12.5t-36.5 20.5l-11 6l-8 -4q-83 -36 -141 -13q-21 8 -37.5 24
t-22.5 28l-6 12q-3 8 -11.5 12t-16.5 1q-8 -4 -12 -12t-1 -16q0 -3 8.5 -17.5t30.5 -36.5t51 -34q71 -29 162 9q59 -47 134 -47q62 0 126 26q58 -26 126 -26q82 0 135 47q95 -36 162 -9q18 8 33.5 19.5t25 23t16.5 21.5t10.5 17l3.5 7q2 8 -1.5 16.5t-10.5 11.5zM428 567
q0 -22 -15.5 -37.5t-38 -15.5t-38 15.5t-15.5 38t15.5 38t38.5 15.5q22 0 37.5 -16t15.5 -38zM598.5 642q-17.5 0 -30 -12.5t-12.5 -30t12.5 -30t30 -12.5t30 12.5t12.5 30t-12.5 30t-30 12.5zM791 557q-28 0 -46 -18.5t-18 -45.5t18 -45.5t45.5 -18.5t46 18.5t18.5 45.5
q0 26 -18.5 45t-45.5 19zM513 514q-27 0 -45.5 -18.5t-18.5 -45.5t18.5 -45.5t46 -18.5t45.5 18.5t18 45.5q0 26 -18.5 45t-45.5 19zM204 514q-22 0 -37.5 -15.5t-15.5 -38t15.5 -38t37.5 -15.5t37.5 15.5t15.5 38.5q0 21 -15.5 37t-37.5 16zM321 503q0 -22 -15.5 -37.5
t-37.5 -15.5t-37.5 15.5t-15.5 38t15.5 38t37.5 15.5t37.5 -16t15.5 -38zM343 428.5q0 -17.5 12.5 -30t30 -12.5t30 12.5t12.5 30t-12.5 30t-30 12.5t-30 -12.5t-12.5 -30zM663 535q-28 0 -46 -18t-18 -45.5t18 -46t45.5 -18.5t46 18.5t18.5 45.5q0 26 -18.5 45t-45.5 19z
M876 429q18 0 30.5 12.5t12.5 30t-12.5 30t-30.5 12.5t-30.5 -12.5t-12.5 -30.5t12.5 -30t30.5 -12zM524 663q-22 0 -37.5 -15t-15.5 -37.5t15.5 -38t37.5 -15.5t37.5 15.5t15.5 38t-15.5 37.5t-37.5 15z" />
    <glyph glyph-name="Scarf" unicode="&#xe681;" 
d="M875 576l-64 149q-3 -4 -8 -10.5t-23.5 -27.5t-40 -41.5t-57.5 -48.5t-75 -52q-28 -17 -98 -43.5t-82 -32.5v0q-10 -3 -26 -10t-59 -31t-77.5 -51t-69 -71.5t-46.5 -92.5l128 -106q2 5 5 14.5t16 37.5t29 54.5t43.5 60.5t59.5 61q-96 -155 -110 -292l213 -64q0 9 1 24.5
t8.5 62.5t20 92t40.5 103.5t67 105.5q26 29 98 89t78 69h-1q12 12 19 25t9 19zM514 389q-89 19 -150 52q-22 -12 -43 -25q57 -35 140 -58q25 17 53 31zM663 582q-27 -19 -55 -36q97 -13 206 -13h37q-127 32 -188 49zM729 636q25 23 45.5 45t28.5 33l8 11q-1 3 -4 7.5
t-18 15.5t-38 19t-69 15t-106 7t-110.5 -6.5t-80 -16t-50.5 -19t-28 -15.5l-8 -7q6 -59 67 -102q103 38 210 38q70 0 153 -25zM514 389q-28 -14 -53 -31q-14 -10 -31 -24q-54 -86 -83 -170q64 123 173 180q53 -11 120 -18q14 21 29 40v0q-86 7 -155 23zM299 725l-43 -170
q0 -4 2 -10t13 -24.5t28.5 -35t53.5 -38t83 -38t122.5 -29.5t166.5 -17l128 170h-18t-48.5 0.5t-72.5 2.5t-84.5 7.5t-91 14t-86 23.5t-75.5 34t-53.5 47.5t-24.5 62.5z" />
    <glyph glyph-name="Santa" unicode="&#xe682;" 
d="M192 461q0 45 19 83.5t51 64.5t73.5 45t87.5 24.5t92 3t88 -19.5t74 -42.5t51 -66.5t19 -92v-184q0 -115 -81.5 -196t-196.5 -81t-196 81t-81 196v184zM643 359.5q0 -15.5 -10.5 -26t-26 -10.5t-26 10.5t-10.5 26t10.5 26t26 10.5t26 -10.5t10.5 -26zM387 359.5
q0 -15.5 -10.5 -26t-26 -10.5t-26 10.5t-10.5 26t10.5 26t26 10.5t26 -10.5t10.5 -26zM789 597q28 -16 49 -32t29 -24l8 -8q-3 7 -7 17.5t-19.5 41.5t-32.5 59.5t-45.5 62.5t-59 59t-72 42t-84.5 17q-83 0 -150 -19.5t-108 -48t-71.5 -67.5t-44.5 -71.5t-22 -67.5t-9 -47.5
t-1 -19.5h617q0 2 -0.5 19.5t-0.5 31t1.5 29.5t7.5 23t15 3zM695 218zM611 218.5q0 -34.5 24.5 -59t59 -24.5t59 24.5t24.5 59t-24.5 58.5t-59 24t-59 -24t-24.5 -58.5zM258 215zM175 215.5q0 -34.5 24.5 -59t59 -24.5t58.5 24.5t24 59t-24 59t-58.5 24.5t-59 -24.5
t-24.5 -59zM832 297q0 25 -17 43t-42 19q15 15 15 37q0 19 -11.5 33t-29.5 18v1h-43v-165q-3 -50 -21 -70q-38 -40 -76 -14q-32 21 -66 29.5t-53 6.5l-19 -2q-7 1 -20 2t-49.5 -7t-67.5 -29q-38 -26 -76 14q-19 20 -21 70v165h-43v-1q-18 -4 -30.5 -18t-12.5 -33
q0 -22 16 -37q-24 -2 -41 -19.5t-17 -42.5q0 -21 13 -37.5t34 -22.5q-11 -9 -18.5 -25.5t-7.5 -30.5q0 -29 21 -51t51 -23q-8 -15 -8 -32q0 -31 22 -53t53 -22q32 0 54 24q-1 -7 -1 -13q0 -31 22 -53t53 -22q27 0 48.5 19t24.5 46h1v0h0.5h0.5q4 -27 25.5 -46t48.5 -19
q31 0 53 22t22 53q0 6 -2 13q9 -10 25 -17t30 -7q31 0 53 22t22 53q0 16 -8 32q30 1 51 23t21 51q0 14 -7.5 30.5t-18.5 25.5q21 6 34 22.5t13 37.5zM811 501.5q0 22.5 -22 29.5v4q9 3 15.5 12t6.5 18q0 14 -9.5 23t-22.5 9q-10 0 -18.5 -6t-11.5 -15h-4q-8 21 -30.5 21
t-29.5 -21h-4q-8 21 -30.5 21t-29.5 -21h-4q-8 21 -30.5 21t-29.5 -21h-4q-8 21 -30.5 21t-29.5 -21h-4q-8 21 -30.5 21t-29.5 -21h-4q-8 21 -30.5 21t-29.5 -21h-4q-8 21 -30.5 21t-29.5 -21h-4q-8 21 -30.5 21t-29.5 -21h-4q-8 21 -30.5 21t-29.5 -21h-4q-3 9 -12 15
t-18 6q-14 0 -23 -9t-9 -23q0 -9 6 -18t15 -12v-4q-21 -7 -21 -29.5t21 -30.5v-4q-9 -3 -15 -11.5t-6 -18.5q0 -13 9 -22.5t23 -9.5q9 0 18 6.5t12 15.5h4q7 -22 29.5 -22t30.5 22h4q7 -22 29.5 -22t30.5 22h4q7 -22 29.5 -22t30.5 22h4q7 -22 29.5 -22t30.5 22h4
q7 -22 29.5 -22t30.5 22h4q7 -22 29.5 -22t30.5 22h4q7 -22 29.5 -22t30.5 22h4q7 -22 29.5 -22t30.5 22h4q7 -22 29.5 -22t30.5 22h4q3 -9 11.5 -15.5t18.5 -6.5q13 0 22.5 9.5t9.5 22.5q0 10 -6.5 18.5t-15.5 11.5v4q22 8 22 30.5zM903 553q21 14 12 37v0q-3 10 -12 16
t-20 5q1 4 1 9q0 18 -16 27q-7 5 -16 5q-13 0 -23 -9q-3 7 -11.5 12.5t-17.5 5.5h-5q-10 -2 -18 -10t-9 -19q-7 3 -14 3q-15 0 -24 -11q-8 -9 -8 -21q0 -10 6 -18q-10 -2 -17 -11t-7 -20q0 -22 21 -30q-4 -8 -4 -17q0 -11 7 -20q15 -19 37 -9q1 -11 8.5 -19.5t17.5 -10.5h7
q20 0 29 17q17 -17 38 -5q22 12 16 35h3q10 0 18.5 6t11.5 15q9 23 -11 37zM384 128q1 -2 3 -4.5t9 -10t15.5 -13t24 -10.5t33.5 -5t33.5 4.5t24.5 11t16 12.5t9 11l3 4h-171zM235 427h-2q-8 -22 -30.5 -22t-29.5 22h-4q-5 -13 -18 -19q-2 -6 -2 -12q0 -16 10 -30q8 2 12 4
q15 -7 31.5 -7t32.5 7v57zM776 363q12 15 12 33q0 5 -1 11q-4 -2 -8 -2q-10 0 -18.5 6.5t-11.5 15.5h-4q-8 -22 -30 -22q-6 0 -11 2v-43q8 -1 11 -1q16 0 32 7q13 -6 29 -7zM811 437q0 6 -3 13q-5 -2 -10 -2h-7q-10 2 -17.5 10.5t-8.5 19.5q-6 -3 -12 -3q-16 0 -25 12
q-7 9 -7 20q0 9 4 17q-8 3 -14.5 12t-6.5 18q0 11 6.5 19.5t17.5 11.5q-4 5 -5 11q-4 1 -8 1q-23 0 -30 -21h-4q-3 8 -10 14q-10 -17 -10 -36q0 -26 17 -46v-1q0 -26 16 -47q18 -21 45 -26q2 -3 6 -7h4q2 -7 5 -11.5t6.5 -6.5t7 -3t7 -1h5.5t4 0.5l2 0.5q10 3 17.5 12
t7.5 19zM469 235zM427 235v0q0 -18 12.5 -30.5t30 -12.5t30 12.5t12.5 30.5v0v0q0 17 -12.5 29.5t-30 12.5t-30 -12.5t-12.5 -29.5v0zM512 235zM480 234.5q0 -13.5 9.5 -22.5t22.5 -9t22.5 9t9.5 22.5t-9.5 23t-22.5 9.5t-22.5 -9.5t-9.5 -23zM427 235zM395 234.5
q0 -13.5 9 -22.5t22.5 -9t23 9t9.5 22.5t-9.5 23t-23 9.5t-22.5 -9.5t-9 -23z" />
    <glyph glyph-name="SnowStorm" unicode="&#xe683;" 
d="M192 384h43v-192h-43v192zM120 318l21 37l166 -97l-22 -37zM140 222l-21 38l168 94l20 -38zM427 192h42v-192h-42v192zM354 126l22 37l166 -97l-22 -37zM375 30l-21 38l167 94l21 -38zM363 640h42v-192h-42v192zM290 574l22 37l166 -97l-22 -37zM311 478l-21 38l167 94
l21 -38zM714 277h42v-149h-42v149zM790 258l21 -38l-131 -72l-21 37zM660 222l22 37l128 -76l-21 -37zM725 768h64v-299h-64v299zM865 727l35 -53l-250 -164l-35 54zM615 674l35 54l250 -165l-36 -53z" />
    <glyph glyph-name="Sled" unicode="&#xe684;" 
d="M213 320h86v-192h-86v192zM533 320h86v-192h-86v192zM213 320h86v-43h-86v43zM533 320h86v-43h-86v43zM469 469q0 70 -51 129t-139.5 93t-193.5 34v-320q0 -35 25 -60t61 -25h768v64q0 35 -25 60t-61 25h-384zM854 320q0 -87 -68.5 -139.5t-165.5 -52.5h-535v-85h535
q75 0 135.5 22t99 61t59.5 88t25 106h-85zM149 661zM128 661.5q0 -8.5 6.5 -15t15 -6.5t15 6.5t6.5 15t-6.5 15t-15 6.5t-15 -6.5t-6.5 -15zM228 642zM207 642.5q0 -8.5 6 -15t15 -6.5t15.5 6.5t6.5 15t-6.5 15t-15.5 6.5t-15 -6.5t-6 -15zM300 609zM279 609.5q0 -8.5 6 -15
t15 -6.5t15.5 6.5t6.5 15t-6.5 15t-15.5 6.5t-15 -6.5t-6 -15zM361 560zM339 560q0 -9 6.5 -15t15.5 -6t15 6t6 15t-6 15t-15 6t-15.5 -6t-6.5 -15zM405 491zM384 490.5q0 -8.5 6.5 -15t15 -6.5t15 6.5t6.5 15t-6.5 15t-15 6.5t-15 -6.5t-6.5 -15zM939 363h-842
q25 -43 74 -43h768v43zM851 285l88 35h-85q0 -17 -3 -35z" />
    <glyph glyph-name="Snowman" unicode="&#xe685;" 
d="M512 320zM171 320q0 -93 45.5 -171.5t124 -124t171.5 -45.5t171.5 45.5t124 124t45.5 171.5t-45.5 171.5t-124 124t-171.5 45.5t-171.5 -45.5t-124 -124t-45.5 -171.5zM448 234.5q0 26.5 19 45.5t45 19q16 0 74.5 -16t109.5 -32l51 -16q-200 -64 -235 -64q-26 0 -45 18.5
t-19 45zM466 43q-13 3 -21 13.5t-5.5 23.5t13.5 20.5t24 5.5v0q13 -2 20.5 -13t5.5 -24q-2 -11 -11 -18.5t-21 -7.5h-5zM521 69q-2 13 5.5 24t20.5 13.5t24 -5.5t13.5 -21t-5.5 -23.5t-21 -13.5h-5q-11 0 -20.5 7.5t-11.5 18.5zM379 75q-12 6 -15.5 19t3.5 24.5t19.5 15
t24 -3t15 -19.5t-2.5 -25q-10 -15 -28 -15q-9 0 -16 4zM602 87q-7 11 -3.5 24t14.5 19q8 5 16 5q19 0 28 -16q4 -8 4 -16q0 -19 -16 -28q-7 -4 -16 -4q-18 0 -27 16zM308 134q-9 10 -7.5 23.5t11.5 22t23 7.5t21.5 -11.5t7.5 -23.5t-11 -22q-9 -7 -21 -7q-15 0 -24 11z
M671 131q-11 9 -11 24q0 12 7 21q10 11 25 11q11 0 20 -7q10 -9 11.5 -22t-7.5 -24t-24 -11h-1q-11 0 -20 8zM384 341zM341 341.5q0 -17.5 12.5 -30t30.5 -12.5t30.5 12.5t12.5 30t-12.5 30t-30.5 12.5t-30.5 -12.5t-12.5 -30zM640 341zM597 341.5q0 -17.5 12.5 -30
t30.5 -12.5t30.5 12.5t12.5 30t-12.5 30t-30.5 12.5t-30.5 -12.5t-12.5 -30zM256 747l21 -192q0 -27 69 -45.5t166 -18.5t166 18.5t69 45.5l21 192h-512zM512 576q-171 0 -245 67l10 -88q0 -27 69 -45.5t166 -18.5t166 18.5t69 45.5l10 88q-16 -14 -28.5 -22t-40 -20.5
t-72 -18.5t-104.5 -6zM755 628l-8 -73q0 -27 -69 -45.5t-166 -18.5t-166 18.5t-69 45.5l-8 73q-56 -18 -88 -42.5t-32 -52.5q0 -34 48.5 -63.5t132 -47t182.5 -17.5t182.5 17.5t132 47t48.5 63.5q0 28 -32 52.5t-88 42.5zM256 746.5q0 -35.5 75 -60.5t181 -25t181 25
t75 60.5t-75 60.5t-181 25t-181 -25t-75 -60.5z" />
    <glyph glyph-name="StarofBethlehem" unicode="&#xe686;" 
d="M363 0q43 335 234 499q69 60 128 77v64q-340 -27 -516 -260q-77 -102 -102 -206v-3q7 7 19.5 18t46 34.5t62.5 32.5q-8 -15 -12.5 -25.5t-13 -31.5t-12.5 -42t-8 -48.5t-3 -61t6 -68.5q37 130 118 205q9 8 10 8q0 -47 10.5 -95t21.5 -73zM661 576q31 9 64 21q1 3 0.5 7
t-5.5 10.5t-16 4.5q-239 -45 -396 -246q-41 -52 -73 -117q-8 -15 -12.5 -25.5t-13 -31.5t-12.5 -42t-8 -48.5t-3 -61t6 -68.5q12 41 29.5 78.5t34 61t31.5 41t24 25l9 7.5q9 52 32.5 101.5t54 86.5t66 70t68 55.5t60.5 39t44 24zM725 802l64 -119l128 -19l-91 -91l18 -137
l-119 64l-119 -64l19 137l-92 91l128 19zM568 472q23 23 49 43l8 58l-44 44q-23 -6 -47 -13l46 -46z" />
    <glyph glyph-name="Synagogue" unicode="&#xe687;" 
d="M512 640l-405 -256v-43l405 256l405 -256v43zM939 683q0 -36 -25 -61t-60.5 -25t-60.5 25t-25 61q0 21 21.5 47.5t42.5 42.5l21 16q4 -2 9.5 -6.5t20.5 -17t26 -25t20.5 -28.5t9.5 -29zM256 683q0 -36 -25 -61t-60.5 -25t-60.5 25t-25 61q0 21 22 47.5t42 42.5t22 16
q3 -2 9 -6.5t20.5 -17t26 -25t20.5 -28.5t9 -29zM107 341v-362h810v362l-405 256zM747 450v-471h128v390zM277 450v-471h-128v390zM587 363h-49l-26 -43l-26 43h-49l26 42l-26 43h49l26 43l26 -43h49l-26 -43zM789 597h128v-618h-128v618zM107 597h128v-618h-128v618z
M768 640h171v-43h-171v43zM85 640h171v-43h-171v43zM597 -21h-170v170q0 36 25 61t60 25t60 -25t25 -61v-170z" />
  </font>
</defs>
</svg>
